<svg xmlns="http://www.w3.org/2000/svg" viewBox="0 0 100 100">
  <circle cx="50" cy="50" r="48" fill="#fff" stroke="#000" stroke-width="2"/>
  <!-- Pentagon patches -->
  <polygon points="50,10 62,30 50,40 38,30" fill="#000"/>
  <polygon points="82,28 90,50 72,58 65,40 72,25" fill="#000"/>
  <polygon points="82,72 62,80 58,62 72,58 90,50" fill="#000"/>
  <polygon points="50,90 38,80 42,62 58,62 62,80" fill="#000"/>
  <polygon points="18,72 10,50 28,42 35,62 28,75" fill="#000"/>
  <polygon points="18,28 35,40 28,42 10,50 8,28" fill="#000"/>
</svg>
